<svg xmlns="http://www.w3.org/2000/svg" viewBox="0 0 180.25 67.72"><defs><style>.cls-1{fill:#efd432;}</style></defs><g id="Layer_2" data-name="Layer 2"><g id="Layer_1-2" data-name="Layer 1"><polygon class="cls-1" points="10.02 63.45 16.49 67.72 16.49 62.05 57.21 62.05 57.21 56.03 10.02 56.03 10.02 63.45"/><path class="cls-1" d="M15.44,10.29H51.78A4.52,4.52,0,0,1,56.3,14.8V37.29a4.51,4.51,0,0,1-4.51,4.51H15.44a4.51,4.51,0,0,1-4.51-4.51V14.8A4.52,4.52,0,0,1,15.44,10.29Z"/><path class="cls-1" d="M61.12,0h-55A5.9,5.9,0,0,0,0,5.68V46.42a5.9,5.9,0,0,0,6.11,5.67h55a5.91,5.91,0,0,0,6.11-5.67V5.68A5.91,5.91,0,0,0,61.12,0Zm1,38.61a8.26,8.26,0,0,1-8.25,8.25H13.31a8.26,8.26,0,0,1-8.24-8.25V13.48a8.25,8.25,0,0,1,8.24-8.24h40.6a8.26,8.26,0,0,1,8.25,8.24Z"/><polygon class="cls-1" points="92.8 26.19 83.95 0.69 73.8 0.69 87.59 37.12 98 37.12 111.79 0.69 101.64 0.69 92.8 26.19"/><path class="cls-1" d="M136.25.69H114.39V37.12h9.37V26.71h12.49q5.46,0,7.94-2.47c1.64-1.65,2.47-4.3,2.47-7.94V11.1c0-3.65-.83-6.29-2.47-7.94S139.89.69,136.25.69Zm1,15.61q0,3.12-3.12,3.12H123.76V8h10.41c2.08,0,3.12,1,3.12,3.13Z"/><path class="cls-1" d="M160.19,37.64q7.65,0,19.25-1v-7q-3.37.21-5.64.37c-1.51.1-2.74.17-3.7.2l-2.83.11-2.71.08-2.39,0a2.43,2.43,0,0,1-1.8-.7,2.56,2.56,0,0,1-.7-1.9V11.1c0-2.08,1-3.13,3.12-3.13h16.65V.69H160.71q-5.46,0-7.94,2.47c-1.64,1.65-2.47,4.29-2.47,7.94V27.75q0,5.1,2.39,7.49T160.19,37.64Z"/><path class="cls-1" d="M99.12,45.62a20.11,20.11,0,0,0-4.61-.26l-1.41,0H86.8a9.73,9.73,0,0,0-7.9,4c-2.12,2.89-2,6.6-1.7,8.55a9.71,9.71,0,0,0,6.18,7.6,14.47,14.47,0,0,0,5.29.59h7.16a1.35,1.35,0,0,1,0-.29,1.86,1.86,0,0,1,0-.33H86.71a9,9,0,0,1-9-9.09v-.21a13.09,13.09,0,0,1,.34-3.66,9.07,9.07,0,0,1,7.33-6.42A21.69,21.69,0,0,1,89.17,46l1.46,0h6.08a9.17,9.17,0,0,1,7.37,3.48,11,11,0,0,1,1.79,8.24,8.91,8.91,0,0,1-7.72,7.67,1.6,1.6,0,0,1,0,.39.86.86,0,0,1,0,.23,9.56,9.56,0,0,0,7.26-5,9.87,9.87,0,0,0,1.13-4.65,14.29,14.29,0,0,0-.38-4.11A9.65,9.65,0,0,0,99.12,45.62Z"/><path class="cls-1" d="M97,65.48a.29.29,0,0,0-.29.32.27.27,0,0,0,.27.3h0a.31.31,0,0,0,0-.62Z"/><path class="cls-1" d="M105.41,57.67a10.62,10.62,0,0,0-1.69-7.9,8.67,8.67,0,0,0-7-3.3H90.63a37.16,37.16,0,0,0-5.17.08,8.58,8.58,0,0,0-7,6.09,13.51,13.51,0,0,0-.32,3.75,8.73,8.73,0,0,0,1.09,4.3A8.58,8.58,0,0,0,86.71,65c3.43,0,6.86,0,10.29,0a8.5,8.5,0,0,0,8.41-7.35ZM97,64.56H86.71a8.16,8.16,0,0,1-7-4.09,8.29,8.29,0,0,1-1-4.08v-.22a12.35,12.35,0,0,1,.3-3.4A8.15,8.15,0,0,1,85.52,47a13.62,13.62,0,0,1,2.13-.13l1.5,0,1.48,0h6.08a8.31,8.31,0,0,1,6.65,3.12,10.12,10.12,0,0,1,1.6,7.56,8,8,0,0,1-8,7Z"/><path class="cls-1" d="M99.32,44.72a20.54,20.54,0,0,0-4.83-.27l-1.39,0H86.8a10.57,10.57,0,0,0-8.64,4.36A12.54,12.54,0,0,0,76.29,58a10.64,10.64,0,0,0,6.76,8.34,13.27,13.27,0,0,0,4.7.65H97a10.55,10.55,0,0,0,9.24-5.55,10.9,10.9,0,0,0,1.23-5.09,15.44,15.44,0,0,0-.42-4.36A10.61,10.61,0,0,0,99.32,44.72Zm6.53,16.53A10.13,10.13,0,0,1,97,66.56H89.6c-2.15,0-4.34.16-6.39-.61a10.11,10.11,0,0,1-6.46-8,12.19,12.19,0,0,1,1.78-8.88,10.16,10.16,0,0,1,8.27-4.17h6.3a29.1,29.1,0,0,1,6.12.24,10.11,10.11,0,0,1,7.41,7,14.75,14.75,0,0,1,.4,4.24A10.38,10.38,0,0,1,105.85,61.25Z"/><path class="cls-1" d="M99.22,45.17a29.1,29.1,0,0,0-6.12-.24H86.8a10.16,10.16,0,0,0-8.27,4.17A12.19,12.19,0,0,0,76.75,58a10.11,10.11,0,0,0,6.46,8c2.05.77,4.24.61,6.39.61H97A.77.77,0,0,1,97,65c-3.43,0-6.86,0-10.29,0a8.58,8.58,0,0,1-7.44-4.33,8.73,8.73,0,0,1-1.09-4.3,13.51,13.51,0,0,1,.32-3.75,8.58,8.58,0,0,1,7-6.09,37.16,37.16,0,0,1,5.17-.08h6.08a8.67,8.67,0,0,1,7,3.3,10.62,10.62,0,0,1,1.69,7.9A8.5,8.5,0,0,1,97,65a.77.77,0,0,1,0,1.54,10.13,10.13,0,0,0,8.85-5.31A10.38,10.38,0,0,0,107,56.39a14.75,14.75,0,0,0-.4-4.24A10.11,10.11,0,0,0,99.22,45.17ZM105.44,61a9.56,9.56,0,0,1-7.26,5,.86.86,0,0,0,0-.23,1.6,1.6,0,0,0,0-.39,8.91,8.91,0,0,0,7.72-7.67,11,11,0,0,0-1.79-8.24A9.17,9.17,0,0,0,96.71,46H90.63l-1.46,0a21.69,21.69,0,0,0-3.78.12,9.07,9.07,0,0,0-7.33,6.42,13.09,13.09,0,0,0-.34,3.66v.21a9,9,0,0,0,9,9.09h9.12a1.86,1.86,0,0,0,0,.33,1.35,1.35,0,0,0,0,.29H88.67a14.47,14.47,0,0,1-5.29-.59,9.71,9.71,0,0,1-6.18-7.6c-.27-2-.42-5.66,1.7-8.55a9.73,9.73,0,0,1,7.9-4h6.3l1.41,0a20.11,20.11,0,0,1,4.61.26,9.65,9.65,0,0,1,7.07,6.66,14.29,14.29,0,0,1,.38,4.11A9.87,9.87,0,0,1,105.44,61Z"/><path class="cls-1" d="M97,65a.77.77,0,0,0,0,1.54A.77.77,0,0,0,97,65Zm0,1.08h0a.27.27,0,0,1-.27-.3.29.29,0,0,1,.29-.32.31.31,0,0,1,0,.62Z"/><path class="cls-1" d="M135.6,46.17c-2.36-.1-4.78-.07-7.12,0l-3.43,0a11.36,11.36,0,0,0-7.57,2.56,6.62,6.62,0,0,0-2.13,3.46,8.44,8.44,0,0,0-.14,1.82V65.8a.28.28,0,0,0,.32.29.28.28,0,0,0,.31-.29V55.52c0-.22,0-.44,0-.66a7.69,7.69,0,0,1,.59-3.8c1.63-3.13,5.39-4.26,8.36-4.28h10a10.46,10.46,0,0,1,7.36,2.52,5.73,5.73,0,0,1,1.93,3.78c0,.31,0,.62,0,.93V65.8a.28.28,0,0,0,.31.29.28.28,0,0,0,.32-.29V55.05a8.36,8.36,0,0,0-.94-4.78C142.2,47.85,139.15,46.31,135.6,46.17Z"/><path class="cls-1" d="M135.64,45.25c-2.39-.1-4.82-.07-7.17,0l-3.42,0A12.27,12.27,0,0,0,116.87,48a7.6,7.6,0,0,0-2.42,4,9.68,9.68,0,0,0-.16,2V65.8a1.18,1.18,0,0,0,.41.91,1.28,1.28,0,0,0,.83.3,1.19,1.19,0,0,0,1.23-1.21V55.52c0-.22,0-.45,0-.68a6.81,6.81,0,0,1,.49-3.36c1.44-2.76,4.84-3.76,7.55-3.78,2.21,0,4.43,0,6.64,0h3.33A9.82,9.82,0,0,1,141.49,50a4.79,4.79,0,0,1,1.64,3.17,8.19,8.19,0,0,1,0,.86V65.8a1.23,1.23,0,0,0,2.46,0V55.05a9.2,9.2,0,0,0-1.08-5.27C142.81,47.1,139.49,45.41,135.64,45.25Zm9.5,20.55a.77.77,0,0,1-1.54,0V54.36c0-.42,0-.84,0-1.25a5.32,5.32,0,0,0-1.78-3.48,10.14,10.14,0,0,0-7.05-2.39c-3.33,0-6.65,0-10,0-3,0-6.47,1.2-8,4-.69,1.31-.53,2.82-.53,4.25V65.8a.78.78,0,0,1-1.55,0V54a9.51,9.51,0,0,1,.15-1.92,7,7,0,0,1,2.28-3.7,11.75,11.75,0,0,1,7.87-2.68c3.51,0,7.06-.13,10.57,0,3.24.13,6.71,1.49,8.51,4.32,1,1.57,1,3.24,1,5Z"/><path class="cls-1" d="M135.62,45.71c-3.51-.14-7.06,0-10.57,0a11.75,11.75,0,0,0-7.87,2.68,7,7,0,0,0-2.28,3.7,9.51,9.51,0,0,0-.15,1.92V65.8a.78.78,0,0,0,1.55,0V55.52c0-1.43-.16-2.94.53-4.25,1.48-2.83,4.94-4,8-4,3.33,0,6.65,0,10,0a10.14,10.14,0,0,1,7.05,2.39,5.32,5.32,0,0,1,1.78,3.48c0,.41,0,.83,0,1.25V65.8a.77.77,0,0,0,1.54,0V55.05c0-1.78,0-3.45-1-5C142.33,47.2,138.86,45.84,135.62,45.71Zm9.07,20.09a.28.28,0,0,1-.32.29.28.28,0,0,1-.31-.29V54c0-.31,0-.62,0-.93a5.73,5.73,0,0,0-1.93-3.78,10.46,10.46,0,0,0-7.36-2.52h-10c-3,0-6.73,1.15-8.36,4.28a7.69,7.69,0,0,0-.59,3.8c0,.22,0,.44,0,.66V65.8a.28.28,0,0,1-.31.29.28.28,0,0,1-.32-.29V54a8.44,8.44,0,0,1,.14-1.82,6.62,6.62,0,0,1,2.13-3.46,11.36,11.36,0,0,1,7.57-2.56l3.43,0c2.34,0,4.76-.06,7.12,0,3.55.14,6.6,1.68,8.15,4.1a8.36,8.36,0,0,1,.94,4.78Z"/><path class="cls-1" d="M175.63,47.08a12.36,12.36,0,0,0-5.2-.92h-6c-3.09,0-6.3,0-8.9,1.85a7.16,7.16,0,0,0-2.86,4.2h.64a4.84,4.84,0,0,1,.32-1A8,8,0,0,1,159.35,47a15.88,15.88,0,0,1,3.35-.23h8.53a8.86,8.86,0,0,1,7,3,2,2,0,0,1,.25,2.09,2.23,2.23,0,0,1-2,1.21H154.13c0,.21,0,.42,0,.63h22.24A2.82,2.82,0,0,0,179.15,52C180.23,49.23,176.1,47.3,175.63,47.08Z"/><path class="cls-1" d="M152.56,57.59a8.05,8.05,0,0,0,.95,4.51,8.84,8.84,0,0,0,5.8,3.78,17.82,17.82,0,0,0,3.44.22H177a.31.31,0,0,0,0-.62H162a10.59,10.59,0,0,1-4.7-.93,6.67,6.67,0,0,1-4.07-5.19,21.37,21.37,0,0,1,0-2.77c0-.41,0-.81,0-1.21v-.72h-.31a1.65,1.65,0,0,1-.32,0v3Z"/><path class="cls-1" d="M152.63,53.23a.45.45,0,0,0,0,.39.25.25,0,0,0,.24.12h.3l0-.63h-.33A.26.26,0,0,0,152.63,53.23Z"/><path class="cls-1" d="M176.49,52.64a1.6,1.6,0,0,0,1.39-2.57c-1.51-2-4.27-2.81-6.65-2.83-2.67,0-5.33,0-8,0a17.7,17.7,0,0,0-3.78.22,7.55,7.55,0,0,0-5.37,3.92,5.24,5.24,0,0,0-.36,1.27h16.51C172.32,52.64,174.41,52.66,176.49,52.64Zm-22.21-.45a4.57,4.57,0,0,1,.22-.62,7.06,7.06,0,0,1,5.05-3.66,12.45,12.45,0,0,1,2.6-.21h3.75c1.77,0,3.55,0,5.32,0,2.08,0,4.82.72,6.3,2.65a1.05,1.05,0,0,1,.15,1.14,1.3,1.3,0,0,1-1.18.69H154.28Z"/><path class="cls-1" d="M176,46.24a13.28,13.28,0,0,0-5.57-1h-6c-3.24,0-6.59,0-9.44,2a7.8,7.8,0,0,0-3.38,6.15c0,.93,0,1.86,0,2.79v1.39a8.85,8.85,0,0,0,1.09,5,9.78,9.78,0,0,0,6.4,4.19,18.57,18.57,0,0,0,3.62.24H177a1.23,1.23,0,0,0,0-2.46H162a9.67,9.67,0,0,1-4.3-.84,5.79,5.79,0,0,1-3.56-4.44,23.72,23.72,0,0,1,0-2.67c0-.41,0-.83,0-1.23v-.65a.17.17,0,0,0,0-.07h22.24A3.72,3.72,0,0,0,180,52.33C181.06,49.63,178.51,47.36,176,46.24Zm3.58,5.92a3.28,3.28,0,0,1-3.25,2h-22.7c0,.39,0,.79,0,1.18,0,1.3-.1,2.64,0,3.94a6.33,6.33,0,0,0,3.82,4.82A10.23,10.23,0,0,0,162,65h15a.77.77,0,0,1,0,1.54H162.75a18.22,18.22,0,0,1-3.53-.23,9.39,9.39,0,0,1-6.1-4,8.48,8.48,0,0,1-1-4.76c0-1.39,0-2.78,0-4.17a7.34,7.34,0,0,1,3.19-5.79c3-2.22,6.72-1.93,10.27-1.93h4.87a13,13,0,0,1,5.38,1C177.84,47.57,180.57,49.61,179.58,52.16Z"/><path class="cls-1" d="M153.22,52.65h-.35a.78.78,0,0,0,0,1.55h.76a11.42,11.42,0,0,1,.09-1.55Zm-.05,1.09h-.3a.25.25,0,0,1-.24-.12.44.44,0,0,1,0-.39.26.26,0,0,1,.24-.12h.33Z"/><path class="cls-1" d="M175.81,46.66a13,13,0,0,0-5.38-1h-4.87c-3.55,0-7.23-.29-10.27,1.93a7.34,7.34,0,0,0-3.19,5.79c0,1.39,0,2.78,0,4.17a8.48,8.48,0,0,0,1,4.76,9.39,9.39,0,0,0,6.1,4,18.22,18.22,0,0,0,3.53.23H177A.77.77,0,0,0,177,65H162a10.23,10.23,0,0,1-4.5-.88,6.33,6.33,0,0,1-3.82-4.82c-.12-1.3,0-2.64,0-3.94,0-.39,0-.79,0-1.18h-.76a.78.78,0,0,1,0-1.55h.85a5.24,5.24,0,0,1,.36-1.27,7.55,7.55,0,0,1,5.37-3.92,17.7,17.7,0,0,1,3.78-.22c2.67,0,5.33,0,8,0,2.38,0,5.14.86,6.65,2.83a1.6,1.6,0,0,1-1.39,2.57c-2.08,0-4.17,0-6.26,0H153.72a11.42,11.42,0,0,0-.09,1.55h22.7a3.28,3.28,0,0,0,3.25-2C180.57,49.61,177.84,47.57,175.81,46.66Zm-22.94,8h.31v.72c0,.4,0,.8,0,1.21a21.37,21.37,0,0,0,0,2.77,6.67,6.67,0,0,0,4.07,5.19,10.59,10.59,0,0,0,4.7.93h15a.31.31,0,0,1,0,.62H162.75a17.82,17.82,0,0,1-3.44-.22,8.84,8.84,0,0,1-5.8-3.78,8.05,8.05,0,0,1-.95-4.51v-3A1.65,1.65,0,0,0,152.87,54.66ZM179.15,52a2.82,2.82,0,0,1-2.82,1.74H154.09c0-.21,0-.42,0-.63H176.5a2.23,2.23,0,0,0,2-1.21,2,2,0,0,0-.25-2.09,8.86,8.86,0,0,0-7-3H162.7a15.88,15.88,0,0,0-3.35.23,8,8,0,0,0-5.69,4.18,4.84,4.84,0,0,0-.32,1h-.64a7.16,7.16,0,0,1,2.86-4.2c2.6-1.9,5.81-1.87,8.9-1.85h6a12.36,12.36,0,0,1,5.2.92C176.1,47.3,180.23,49.23,179.15,52Z"/></g></g></svg>