<svg xmlns="http://www.w3.org/2000/svg" viewBox="0 0 269.66 43.21"><defs><style>.cls-1{fill:#efd432;}</style></defs><g id="Layer_2" data-name="Layer 2"><g id="Layer_1-2" data-name="Layer 1"><polygon class="cls-1" points="6.39 40.49 10.52 43.21 10.52 39.59 36.5 39.59 36.5 35.75 6.39 35.75 6.39 40.49"/><rect class="cls-1" x="6.97" y="6.56" width="28.95" height="20.11" rx="2.88"/><path class="cls-1" d="M39,0H3.9A3.76,3.76,0,0,0,0,3.62v26a3.76,3.76,0,0,0,3.9,3.62H39a3.76,3.76,0,0,0,3.89-3.62v-26A3.76,3.76,0,0,0,39,0Zm.66,24.64A5.27,5.27,0,0,1,34.4,29.9H8.5a5.27,5.27,0,0,1-5.27-5.26V8.6A5.27,5.27,0,0,1,8.5,3.34H34.4A5.27,5.27,0,0,1,39.66,8.6Z"/><polygon class="cls-1" points="72.59 23.54 64.58 0.44 55.38 0.44 67.88 33.44 77.3 33.44 89.8 0.44 80.6 0.44 72.59 23.54"/><path class="cls-1" d="M112,.44H92.15v33h8.49V24H112c3.3,0,5.69-.75,7.19-2.24s2.24-3.89,2.24-7.19V9.87q0-4.95-2.24-7.19C117.64,1.19,115.25.44,112,.44Zm.94,14.14a2.5,2.5,0,0,1-2.83,2.83h-9.42V7h9.42a2.5,2.5,0,0,1,2.83,2.83Z"/><path class="cls-1" d="M133.63,33.91q6.93,0,17.44-.95V26.6l-5.11.33c-1.37.1-2.49.16-3.35.19l-2.57.09c-.85,0-1.66.06-2.45.07l-2.17,0a2.16,2.16,0,0,1-1.62-.64,2.3,2.3,0,0,1-.64-1.72V9.87A2.5,2.5,0,0,1,136,7h15.08V.44h-17c-3.3,0-5.69.75-7.19,2.24s-2.24,3.89-2.24,7.19V25c0,3.08.73,5.34,2.17,6.79S130.55,33.91,133.63,33.91Z"/><path class="cls-1" d="M184.46,30.77h-7.62c-3,0-6.15.32-8.79-1.53a8.44,8.44,0,0,1-3.55-6.51c0-.87,0-1.74,0-2.61V11c0-4.12,2.33-7.87,6.53-8.81,2.57-.58,5.54-.21,8.14-.21s5.89-.41,8.42.6a8.43,8.43,0,0,1,4.88,5.29,12,12,0,0,1,.38,3.68v10a9.46,9.46,0,0,1-1.26,5.17,8.5,8.5,0,0,1-7.13,4,.75.75,0,0,0,0,1.5,10,10,0,0,0,9.87-9.19c.22-2.94,0-5.94,0-8.88,0-3.46.21-6.84-2-9.77a9.91,9.91,0,0,0-6-3.72,20.3,20.3,0,0,0-3.82-.19c-3.14,0-6.29,0-9.44,0a10.07,10.07,0,0,0-9.79,7.32,15.35,15.35,0,0,0-.33,4v5.3c0,3.15-.41,6.63,1,9.55a10,10,0,0,0,6,5.15,15.53,15.53,0,0,0,4.61.43h9.86A.75.75,0,0,0,184.46,30.77Z"/><path class="cls-1" d="M204,31.53V18.21c0-1.76,0-3.52,0-5.28.05-4,2.24-7.91,6.12-9.28,2.15-.76,4.72-.46,7-.46s4.3,0,6.45,0a9.16,9.16,0,0,1,8.59,7.4,26.39,26.39,0,0,1,.25,5.69V31.53a.75.75,0,0,0,1.5,0V17.21a48.32,48.32,0,0,0-.1-5.77,11.11,11.11,0,0,0-6.83-9.12c-2.39-.92-5.14-.63-7.65-.63-2.26,0-4.53-.09-6.79,0a10.52,10.52,0,0,0-9.18,6.85,17.8,17.8,0,0,0-.81,6.72V31.53a.75.75,0,0,0,1.5,0Z"/><path class="cls-1" d="M266.84,30.77c-5.3,0-10.62.08-15.93,0-5.16-.09-8.25-5-8.31-9.74,0-2.7,0-5.41,0-8.1.06-4.81,3.17-9.67,8.36-9.74,3.06,0,6.12,0,9.18,0a8.09,8.09,0,0,1,5.38,1.7A7.31,7.31,0,0,1,268,8.26c.33,1.14.16,3.07-1,3.72a4.2,4.2,0,0,1-1.9.16h-3.89l-19.38,0a.75.75,0,0,0,0,1.5l19,0h4.37a5.62,5.62,0,0,0,2.38-.25c2.14-1,2.52-4.17,1.69-6.14A9.67,9.67,0,0,0,263,2a17.92,17.92,0,0,0-4.45-.27h-5.91a13.83,13.83,0,0,0-4.49.43,10.13,10.13,0,0,0-5.69,5.07c-1.84,3.6-1.36,7.87-1.36,11.79a21.43,21.43,0,0,0,.38,5.18,11.19,11.19,0,0,0,4.4,6.55c2.81,1.92,6.15,1.56,9.37,1.56h11.59a.75.75,0,0,0,0-1.5Z"/></g></g></svg>