<?xml version="1.0" encoding="utf-8"?>
<!-- Designed by Vexels.com - 2019 All Rights Reserved - https://vexels.com/terms-and-conditions/  -->
<svg version="1.1" id="Layer_1" xmlns="http://www.w3.org/2000/svg" xmlns:xlink="http://www.w3.org/1999/xlink" x="0px" y="0px"
	 viewBox="0 0 1200 1200" enable-background="new 0 0 1200 1200" xml:space="preserve">
<g>
	<g>
		<path fill="#808285" d="M1116.864,139.709H83.138c-0.774,0-1.375,0.602-1.375,1.376v734.421c0,0.773,0.601,1.375,1.375,1.375
			h391.621v114.534h-74.772c-19.021,0-34.433,15.42-34.433,34.438s15.412,34.438,34.433,34.438h400.03
			c19.021,0,34.434-15.42,34.434-34.438s-15.412-34.438-34.434-34.438H714.84V876.881h402.024c0.772,0,1.375-0.602,1.375-1.375
			V141.085C1118.238,140.311,1117.635,139.709,1116.864,139.709z M1007.784,762.901H192.217V253.689h815.566V762.901z"/>
	</g>
</g>
</svg>
